<?xml version="1.0" standalone="no"?>
<!DOCTYPE svg PUBLIC "-//W3C//DTD SVG 20010904//EN"
 "http://www.w3.org/TR/2001/REC-SVG-20010904/DTD/svg10.dtd">
<svg version="1.0" xmlns="http://www.w3.org/2000/svg"
 width="1024.000000pt" height="1024.000000pt" viewBox="0 0 1024.000000 1024.000000"
 preserveAspectRatio="xMidYMid meet">

<g transform="translate(0.000000,1024.000000) scale(0.100000,-0.100000)"
fill="#000000" stroke="none">
<path d="M5070 9662 c-126 -148 -245 -312 -317 -438 -73 -127 -167 -351 -186
-441 -11 -51 -10 -52 18 -75 117 -92 191 -163 197 -192 12 -50 7 -217 -6 -213
-6 2 -20 49 -31 105 l-20 101 -65 55 c-36 30 -92 79 -124 109 l-59 53 48 130
c94 256 228 490 379 665 l65 76 -42 -3 c-429 -39 -567 -59 -817 -123 -614
-156 -1184 -442 -1695 -850 -149 -119 -397 -360 -560 -546 -463 -523 -768
-1059 -959 -1685 -70 -230 -108 -411 -153 -720 -45 -311 -44 -982 2 -1290 105
-708 316 -1251 711 -1833 520 -766 1297 -1396 2097 -1702 277 -105 610 -191
912 -234 245 -35 363 -44 635 -44 540 -2 1012 79 1507 259 588 213 1045 505
1527 974 287 279 505 551 717 895 467 757 691 1614 665 2545 -26 965 -314
1789 -896 2564 -232 308 -548 635 -845 871 -513 408 -1139 704 -1755 830 -190
39 -381 65 -524 72 l-130 6 61 -74 c85 -104 199 -280 244 -374 20 -44 56 -141
79 -215 23 -74 48 -150 56 -168 19 -43 18 -47 -9 -59 -32 -15 -244 -190 -256
-211 -5 -9 -12 -43 -16 -75 -4 -32 -18 -79 -31 -104 l-23 -46 28 -41 c48 -69
128 -227 150 -296 28 -87 50 -229 58 -372 14 -269 -81 -650 -248 -994 -47 -98
-71 -133 -126 -190 -64 -66 -204 -184 -218 -184 -13 0 -193 160 -240 212 -59
65 -72 92 -141 280 -111 304 -150 458 -174 688 -41 384 63 750 273 968 50 52
239 220 265 236 22 13 131 -63 241 -170 58 -57 106 -102 108 -101 1 1 8 52 17
112 l15 110 48 43 c26 24 85 73 131 109 45 37 82 70 82 75 0 22 -42 173 -71
255 -84 239 -211 436 -429 666 -45 48 -85 87 -89 87 -3 0 -40 -40 -81 -88z
m130 -137 c154 -113 323 -369 384 -579 44 -150 41 -160 -72 -239 l-52 -37 -10
24 c-7 20 -4 35 16 69 20 37 23 53 18 87 -6 35 -9 39 -17 24 -15 -30 -109
-124 -139 -140 -15 -8 -37 -14 -50 -14 -33 0 -162 106 -169 139 l-6 26 -7 -26
c-6 -21 -16 -28 -43 -32 -19 -3 -56 -19 -81 -35 -94 -59 -119 -53 -191 50 -44
62 -51 78 -48 108 7 55 98 236 168 334 56 78 232 276 246 276 3 0 27 -16 53
-35z m-1032 -525 c52 -145 61 -179 41 -164 -8 7 -74 39 -146 72 -153 69 -143
78 -92 -78 15 -46 27 -85 26 -86 -1 -1 -16 -4 -32 -7 l-31 -6 -40 147 c-23 81
-44 155 -48 165 -11 24 20 23 81 -4 26 -12 82 -36 124 -54 l77 -33 -28 81
c-26 75 -27 83 -12 95 24 18 32 4 80 -128z m1870 116 c2 -3 -3 -23 -12 -46
-19 -47 -21 -80 -4 -80 17 0 140 70 168 96 24 21 28 22 74 10 l50 -13 -85 -42
c-120 -61 -120 -61 -85 -124 16 -28 47 -78 69 -111 l40 -59 -39 8 c-47 8 -60
18 -84 64 -10 20 -32 55 -49 78 -29 40 -33 42 -58 32 -35 -13 -43 -25 -43 -71
0 -37 -1 -38 -36 -38 -32 0 -36 2 -31 23 3 12 17 83 33 158 l28 137 29 -9 c16
-5 32 -11 35 -13z m-1568 -85 c0 -31 -5 -34 -72 -45 -31 -6 -37 -4 -43 15 -4
11 -3 25 2 30 8 8 59 21 106 28 4 1 7 -12 7 -28z m-813 -95 c-2 -5 -32 -19
-68 -31 -120 -41 -150 -65 -116 -94 11 -8 27 -4 68 19 63 35 79 37 79 11 0
-14 -16 -26 -55 -42 -37 -15 -55 -28 -55 -40 0 -30 18 -32 74 -8 52 21 94 21
81 -1 -4 -6 -33 -24 -66 -40 -32 -17 -59 -32 -59 -34 0 -3 4 -16 10 -30 11
-30 8 -30 143 33 48 23 92 39 97 36 27 -16 -3 -47 -67 -70 -27 -10 -81 -33
-122 -52 -75 -34 -101 -36 -101 -8 0 29 -62 175 -95 225 -23 35 -30 52 -22 58
7 4 58 27 114 51 56 24 108 49 114 58 11 13 15 11 31 -9 9 -13 16 -27 15 -32z
m3003 18 c167 -52 215 -245 80 -314 -114 -58 -286 -13 -350 93 -30 49 -27 127
6 167 62 73 147 91 264 54z m435 -209 c120 -66 125 -71 125 -120 0 -32 -7 -51
-26 -74 -22 -27 -32 -31 -74 -31 -27 0 -52 5 -55 10 -3 6 -10 10 -15 10 -11 0
26 -97 51 -132 26 -36 7 -37 -43 -3 -24 16 -40 37 -48 62 -6 21 -16 55 -22 76
-17 57 -32 64 -56 25 -11 -18 -23 -43 -27 -55 -7 -26 -23 -29 -49 -10 -16 11
-12 22 43 132 33 66 64 133 70 149 11 26 13 27 34 14 12 -8 54 -32 92 -53z
m-3822 -35 c37 -42 34 -67 -14 -116 l-41 -42 49 -15 c26 -9 74 -19 106 -23 63
-7 78 -17 48 -33 -36 -20 -134 -13 -207 15 l-69 26 21 -24 c44 -47 53 -98 19
-98 -8 0 -59 52 -115 116 -118 136 -119 128 14 195 98 49 144 49 189 -1z
m1321 -216 c3 -9 -12 -16 -52 -24 -160 -31 -349 -76 -452 -107 -241 -72 -527
-201 -770 -346 l-96 -57 59 -62 c71 -77 165 -196 238 -303 29 -44 57 -82 61
-85 4 -3 7 -37 7 -75 0 -123 37 -226 143 -393 l66 -102 22 57 c88 222 206 376
401 525 65 50 223 148 239 148 10 0 -2 -135 -12 -141 -39 -24 -162 -139 -230
-214 l-82 -90 100 95 c55 52 127 116 159 142 55 43 60 45 63 25 2 -12 -1 -23
-7 -25 -6 -2 -11 -9 -11 -16 0 -6 -23 -29 -50 -50 -28 -21 -53 -43 -57 -49 -5
-9 30 14 108 72 17 12 19 11 20 -15 0 -16 3 -42 5 -58 5 -26 -4 -38 -63 -98
-37 -37 -62 -68 -56 -68 7 0 14 4 18 9 9 15 97 62 104 55 3 -3 6 -40 5 -82 0
-43 3 -66 6 -52 5 22 8 19 18 -22 17 -67 16 -70 -31 -100 -23 -15 -64 -50 -92
-79 l-50 -52 43 34 c63 49 146 99 153 91 4 -4 16 -45 28 -91 16 -67 18 -87 9
-93 -9 -6 -7 -8 6 -6 16 2 24 -9 42 -61 l22 -65 -46 -29 c-152 -96 -331 -362
-406 -602 -90 -288 -84 -273 -85 -229 -2 66 28 352 44 418 7 34 21 80 29 104
8 23 13 42 10 42 -9 0 -45 -94 -55 -145 -6 -27 -19 -77 -29 -110 -25 -83 -38
-207 -50 -505 -9 -199 -52 -665 -64 -677 -1 -1 -8 44 -15 100 -6 56 -22 156
-34 222 -20 110 -22 146 -19 420 2 165 7 320 12 345 5 25 4 51 -1 60 -7 13 -8
13 -9 0 0 -8 -7 -73 -16 -145 -10 -88 -14 -176 -10 -270 4 -109 3 -127 -5 -80
-9 59 -22 495 -20 665 2 95 18 254 31 300 5 17 5 30 0 30 -5 0 -13 -19 -19
-42 -9 -39 -9 -37 -4 20 3 37 2 62 -4 62 -11 0 -27 -107 -44 -300 l-13 -135
-12 50 c-19 72 -36 279 -30 350 l6 60 -15 -39 c-40 -104 -23 -356 32 -464 26
-52 28 -66 28 -162 -1 -78 -7 -125 -23 -181 -12 -41 -22 -99 -22 -127 0 -29
-3 -52 -8 -52 -4 0 -24 11 -44 25 -20 14 -41 25 -46 25 -15 0 -39 70 -58 166
-24 131 -16 312 20 419 26 76 46 114 46 87 0 -7 4 -12 9 -12 4 0 11 31 15 70
3 38 15 118 27 176 11 59 18 118 14 132 -3 14 -35 67 -71 118 -90 130 -163
290 -219 479 -25 88 -62 207 -81 265 -35 106 -128 306 -162 348 l-19 24 -114
-82 c-252 -182 -545 -453 -725 -670 -405 -488 -670 -1130 -734 -1779 -13 -132
-13 -513 0 -656 13 -143 64 -447 101 -605 68 -290 187 -590 351 -885 62 -111
216 -348 271 -417 33 -41 32 -34 3 -191 -7 -43 -17 -81 -20 -84 -10 -10 -35
18 -126 142 -448 611 -699 1284 -746 1997 l-7 107 46 51 c55 62 72 121 65 236
-5 90 -29 147 -85 206 l-36 37 7 83 c21 248 75 505 161 763 78 234 144 392
233 555 171 314 308 502 555 764 523 555 1209 948 1937 1110 l105 23 77 -70
c42 -38 79 -76 82 -83z m566 124 c38 -26 50 -48 26 -48 -9 0 -23 11 -32 25
-14 22 -63 38 -50 16 8 -12 -46 -22 -58 -11 -5 5 -6 16 -3 24 10 24 78 20 117
-6z m901 -32 c309 -79 472 -140 761 -285 223 -112 350 -189 521 -317 237 -176
512 -443 702 -679 118 -147 302 -440 408 -651 189 -377 320 -839 343 -1211 l6
-111 -34 -31 c-46 -40 -89 -138 -96 -216 -7 -91 18 -166 72 -219 l44 -42 -9
-128 c-42 -605 -253 -1223 -597 -1751 -102 -156 -248 -355 -261 -355 -6 0 -13
17 -16 38 -4 20 -16 72 -27 114 l-20 78 39 47 c178 217 382 602 520 983 225
619 277 1398 133 2005 -181 766 -656 1468 -1330 1967 -52 39 -107 82 -121 95
l-27 25 -25 -34 c-77 -101 -157 -289 -244 -573 -36 -115 -82 -248 -104 -295
-46 -97 -118 -217 -148 -244 -18 -17 -20 -17 -31 1 -10 16 -11 14 -6 -9 3 -14
11 -62 17 -105 6 -43 13 -81 16 -85 2 -5 4 -62 4 -128 1 -97 -4 -133 -21 -185
-12 -36 -26 -65 -31 -65 -5 0 -9 19 -10 43 0 23 -4 101 -8 172 -8 116 -14 145
-56 270 -74 220 -162 382 -273 500 -26 28 -41 42 -33 33 24 -30 8 -28 -27 3
-36 32 -40 41 -14 32 14 -5 14 -3 -3 10 -10 8 -25 12 -33 10 -8 -4 -12 0 -10
8 1 8 -2 15 -7 17 -6 2 -19 12 -30 22 -31 29 -159 120 -168 120 -5 0 25 -25
65 -55 40 -30 120 -101 178 -157 57 -57 94 -91 82 -77 -27 32 -29 48 -2 24 71
-64 227 -349 249 -453 6 -29 18 -69 27 -90 19 -43 22 -130 13 -365 -6 -163
-21 -220 -33 -130 -15 103 -131 452 -155 468 -5 2 0 -21 11 -53 28 -85 85
-299 97 -367 7 -37 8 -106 4 -185 l-7 -125 -8 90 c-4 50 -19 130 -33 180 -27
91 -106 298 -112 292 -1 -2 15 -52 38 -112 53 -141 76 -233 89 -356 15 -146
12 -453 -5 -604 -8 -71 -17 -193 -19 -270 l-5 -140 9 105 c17 196 41 445 45
460 1 8 4 -5 5 -30 2 -44 2 -44 11 -15 5 17 16 83 25 147 20 160 29 183 39 94
7 -61 -6 -416 -21 -617 l-6 -77 68 -11 c38 -7 112 -23 164 -36 172 -43 412
-58 554 -35 63 10 191 68 274 124 l52 34 -16 -31 c-9 -18 -73 -89 -143 -158
-107 -106 -152 -143 -301 -240 -96 -64 -209 -135 -250 -159 -211 -123 -492
-332 -636 -475 -105 -103 -177 -209 -253 -370 -61 -131 -33 -103 40 40 29 55
74 130 101 167 47 64 220 238 237 238 5 0 42 -16 84 -35 117 -54 229 -68 465
-60 114 4 192 3 192 -2 0 -18 -186 -190 -270 -250 -47 -33 -125 -82 -175 -108
-292 -155 -371 -203 -581 -357 -67 -48 -126 -88 -131 -88 -21 0 -33 28 -42 96
-19 138 -23 231 -12 324 10 85 17 108 70 215 87 175 229 344 413 491 83 67
267 186 430 279 68 39 163 97 213 129 l90 60 -112 12 c-156 17 -254 38 -380
83 -59 21 -116 41 -125 45 -14 6 -18 1 -23 -31 -21 -132 -30 -175 -51 -234
-54 -150 -90 -212 -221 -372 -331 -409 -361 -454 -388 -585 -19 -92 -19 -169
0 -251 9 -35 14 -65 12 -67 -2 -2 -26 17 -55 42 l-52 46 0 84 c0 113 23 178
92 257 30 34 78 96 108 137 30 41 105 138 166 215 195 247 232 301 238 348 21
169 27 241 22 265 -10 47 -55 567 -71 816 -22 340 -60 559 -120 686 -14 30
-23 46 -20 35 32 -104 87 -441 83 -508 -3 -48 -5 -43 -67 144 -35 107 -76 222
-92 257 -64 143 -186 287 -311 369 l-68 44 16 37 c9 20 34 84 55 141 22 58 44
108 50 112 6 4 8 12 5 18 -11 18 15 13 73 -14 30 -14 56 -23 59 -21 2 3 -25
24 -62 47 -36 24 -66 50 -66 58 0 9 9 43 19 76 11 34 22 82 26 108 4 26 10 47
14 47 3 0 40 -19 81 -41 87 -47 191 -130 256 -203 29 -32 38 -38 24 -18 -44
65 -126 139 -240 215 l-115 77 0 184 0 184 65 -36 c102 -56 169 -104 248 -177
164 -152 315 -378 353 -529 6 -26 14 -45 16 -42 2 2 0 21 -6 41 -10 36 -7 42
36 109 89 136 153 312 153 417 0 45 7 61 56 137 71 109 144 200 223 277 94 91
95 84 -12 151 -310 193 -705 350 -1064 424 -81 16 -159 32 -172 36 -22 5 -18
10 55 79 56 53 87 75 105 75 14 0 104 -20 200 -44z m-3113 -148 c100 -106 101
-108 90 -139 -16 -45 -80 -106 -125 -118 -90 -25 -122 -10 -247 118 l-70 70
24 26 24 26 96 -96 c90 -89 98 -95 137 -95 33 0 48 6 72 31 17 17 31 35 31 41
0 6 -40 54 -89 107 -86 93 -88 97 -72 118 9 12 19 21 22 20 3 -1 51 -50 107
-109z m4625 10 c41 -28 47 -37 43 -58 -7 -38 -25 -185 -32 -263 l-6 -68 -31
20 c-29 19 -32 24 -29 65 l3 44 -63 43 c-35 23 -75 53 -90 67 -27 25 -27 25
-55 6 -30 -19 -41 -20 -85 -2 -29 11 -38 28 -15 28 6 0 73 34 147 75 74 40
142 74 150 74 8 1 36 -14 63 -31z m-4945 -302 l93 -79 -23 -26 c-13 -14 -24
-27 -24 -29 -1 -2 -35 29 -75 68 -41 39 -95 87 -121 107 -27 21 -48 40 -48 44
0 4 10 18 22 32 l22 24 31 -31 c17 -17 72 -67 123 -110z m5272 26 c5 -20 10
-94 10 -164 0 -71 4 -128 9 -128 4 0 36 33 71 73 34 39 66 73 69 75 4 1 17 -8
29 -21 l22 -23 -104 -103 c-94 -94 -105 -102 -123 -90 -24 15 -33 69 -33 207
0 50 -2 92 -4 92 -2 0 -32 -29 -67 -65 -65 -68 -78 -75 -99 -50 -10 12 -2 27
51 87 98 113 142 158 150 152 5 -3 13 -21 19 -42z m-5593 -103 c6 -24 12 -64
12 -89 1 -25 4 -61 7 -80 l6 -35 40 38 c62 59 138 117 154 117 23 0 16 -27
-13 -58 -62 -65 -202 -192 -212 -192 -5 0 -12 21 -16 48 -11 94 -26 186 -30
190 -2 3 -31 -19 -65 -48 -50 -43 -63 -50 -75 -40 -8 7 -15 17 -15 22 0 14
174 178 185 174 6 -1 15 -22 22 -47z m-236 -595 c31 -38 16 -74 -89 -220 -167
-232 -275 -419 -381 -658 -140 -315 -220 -589 -272 -928 -11 -73 -26 -139 -33
-146 -19 -19 -85 -32 -110 -22 -29 11 -72 92 -87 166 -36 175 103 715 275
1069 130 268 236 426 391 581 146 148 264 209 306 158z m6241 -14 c334 -221
645 -779 787 -1411 42 -188 52 -279 40 -368 -17 -140 -71 -206 -149 -182 -21
6 -42 17 -48 24 -5 6 -17 64 -26 127 -34 232 -124 571 -207 782 -103 259 -291
605 -449 828 -81 116 -90 131 -90 166 0 68 67 83 142 34z m-708 -190 c19 -36
48 -99 64 -140 91 -230 100 -550 21 -737 l-18 -41 -73 38 c-40 21 -91 41 -113
44 -30 4 -34 4 -15 -3 103 -36 180 -83 180 -109 0 -29 -74 -141 -151 -228
l-73 -84 -21 77 c-26 94 -51 145 -100 198 l-37 40 30 -40 c48 -65 82 -142 96
-216 15 -78 19 -72 -76 -132 -65 -41 -133 -77 -146 -77 -5 0 -12 46 -15 103
-3 56 -10 113 -16 127 l-12 25 6 -25 c13 -54 17 -216 6 -242 -13 -35 -41 -49
-191 -91 -185 -52 -184 -51 -175 -30 45 112 66 229 64 363 -1 68 -13 149 -19
125 -1 -5 -1 -62 -1 -125 3 -184 -43 -374 -93 -385 -39 -8 -106 -11 -106 -4 0
4 7 26 16 50 12 31 17 86 19 184 3 136 3 137 -5 40 -9 -122 -27 -220 -45 -256
-13 -24 -111 -96 -120 -88 -8 9 -35 278 -35 354 0 78 1 83 62 203 42 84 64
118 70 110 6 -8 7 -4 3 11 -7 22 -5 24 22 18 17 -3 54 -9 84 -13 41 -5 62 -14
87 -37 20 -20 30 -37 27 -47 -5 -12 -4 -12 6 -3 10 10 10 18 1 38 l-12 26 133
-1 c105 -1 148 3 211 19 44 12 88 21 98 21 10 0 58 25 106 56 212 136 295 291
296 554 1 107 -3 140 -27 225 -15 54 -44 129 -63 165 -30 55 -31 60 -10 35 14
-16 41 -59 60 -95z m-4940 3 c-71 -165 -84 -412 -30 -579 28 -89 60 -139 133
-208 36 -34 43 -46 29 -46 -24 0 -201 -83 -211 -99 -13 -23 4 -23 27 -1 28 26
132 77 173 85 24 5 45 -3 102 -37 l72 -43 -62 -62 c-72 -73 -96 -115 -102
-180 l-4 -48 9 42 c13 62 35 102 86 161 66 75 68 76 183 52 54 -11 102 -20
106 -20 3 0 3 -5 -1 -11 -5 -8 -1 -8 14 0 19 10 202 16 202 6 0 -2 -7 -30 -15
-62 -8 -31 -14 -80 -14 -108 2 -50 2 -49 9 15 10 89 27 148 48 159 9 5 53 14
97 20 44 6 92 14 107 17 l27 6 -26 -78 c-45 -135 -43 -394 2 -550 7 -21 7 -21
-77 -7 -53 9 -88 20 -96 31 -16 21 -71 196 -82 260 -6 34 -8 39 -9 17 -1 -37
31 -174 58 -244 l19 -51 -41 6 c-23 4 -69 15 -102 25 -33 10 -67 19 -75 19
-20 0 -141 57 -162 77 -12 11 -18 31 -18 63 0 45 23 196 36 236 4 15 3 16 -4
4 -13 -20 -39 -140 -48 -217 -3 -35 -8 -63 -10 -63 -1 0 -50 34 -108 76 -97
69 -111 83 -107 107 1 5 -3 6 -7 3 -24 -15 -175 176 -221 279 -120 265 -116
538 13 835 29 68 100 190 110 190 2 0 -11 -35 -30 -77z m2056 -785 c68 -122
334 -368 396 -368 26 0 92 46 183 126 93 84 170 171 230 264 26 38 49 70 52
70 14 0 203 -186 247 -244 44 -57 132 -202 132 -218 0 -4 -25 2 -57 13 -105
36 -154 27 -375 -73 -178 -80 -236 -128 -170 -143 36 -7 39 -6 261 104 115 57
195 91 215 91 43 -1 111 -33 131 -64 29 -44 74 -163 89 -239 30 -143 -9 -220
-222 -440 -151 -156 -193 -215 -192 -270 1 -18 3 -17 14 9 20 44 69 88 166
146 109 65 152 102 212 185 61 83 63 85 47 48 -20 -46 -159 -251 -209 -309
-84 -97 -108 -131 -125 -183 -24 -74 -14 -85 26 -26 54 80 219 249 219 225 0
-39 -71 -268 -105 -337 -42 -86 -138 -213 -242 -320 -126 -130 -280 -262 -341
-292 -53 -26 -66 -28 -177 -28 -105 0 -126 3 -167 23 -64 32 -207 154 -364
308 -133 131 -201 217 -249 313 -41 80 -95 249 -102 316 l-6 60 48 -60 c27
-33 71 -85 98 -114 27 -30 64 -78 83 -105 l34 -51 -6 35 c-9 55 -48 129 -108
205 -114 146 -229 335 -214 351 3 2 17 -18 31 -44 41 -76 100 -136 190 -193
118 -75 156 -107 189 -158 38 -60 36 -30 -4 50 -24 47 -67 100 -169 205 -118
122 -143 154 -180 228 -40 82 -42 90 -41 170 1 66 8 106 32 178 18 51 38 104
47 116 17 28 86 61 126 62 15 0 82 -29 150 -64 139 -72 238 -110 315 -121 l54
-7 -4 27 c-2 23 -15 34 -78 65 -122 62 -336 140 -384 140 -39 0 -98 -14 -150
-36 -16 -6 -13 5 18 62 76 137 215 306 311 376 45 33 38 38 95 -64z m-865
-898 c14 -107 32 -231 41 -275 33 -181 84 -583 91 -725 5 -102 6 -106 40 -145
198 -233 349 -423 399 -505 33 -55 72 -112 86 -127 36 -37 55 -86 63 -159 9
-81 -7 -135 -53 -179 -46 -43 -53 -44 -41 -2 33 106 -5 355 -71 467 -32 56
-136 187 -319 405 -61 72 -115 148 -136 190 -40 83 -80 216 -101 340 -9 50
-17 91 -19 93 -2 2 -16 -3 -32 -11 -92 -47 -306 -97 -518 -120 l-110 -12 60
-41 c33 -23 103 -65 155 -94 358 -198 568 -348 737 -523 185 -192 248 -317
271 -532 14 -129 -16 -405 -44 -405 -7 0 -56 33 -107 73 -128 100 -298 206
-503 314 -94 49 -199 109 -233 132 -93 64 -249 192 -311 256 -46 49 -51 57
-30 52 62 -15 317 -29 430 -24 125 5 199 22 313 71 l39 17 105 -103 c107 -105
179 -202 268 -360 26 -49 50 -86 53 -84 7 7 -100 206 -154 288 -92 139 -280
313 -506 471 -51 36 -187 122 -303 192 -288 174 -390 244 -519 355 -96 83
-203 196 -194 205 2 2 46 -18 99 -44 153 -74 213 -86 419 -85 96 1 213 7 260
13 91 13 340 67 348 76 3 3 -2 94 -12 202 -19 224 -21 449 -5 506 6 22 12 37
14 35 2 -1 15 -91 30 -198z m-2654 -220 c47 -26 64 -129 33 -196 -10 -21 -34
-45 -61 -61 -36 -21 -53 -25 -94 -21 -28 3 -47 2 -42 -3 4 -4 51 -24 103 -45
125 -48 165 -69 184 -96 22 -31 20 -86 -5 -128 -52 -87 -108 -93 -201 -22 -83
63 -147 144 -203 260 l-46 95 37 54 c88 128 222 202 295 163z m7978 -27 c63
-39 171 -165 171 -200 0 -15 -21 -70 -46 -123 -56 -114 -142 -205 -246 -260
l-67 -35 -35 19 c-23 12 -43 35 -57 63 -19 39 -20 50 -10 82 15 51 29 62 170
131 66 33 121 61 121 63 0 1 -17 1 -39 -1 -46 -5 -109 25 -141 65 -18 24 -21
38 -18 88 9 139 82 179 197 108z m-3152 -30 c-24 -38 -71 -86 -52 -53 24 43
68 101 72 97 2 -3 -7 -22 -20 -44z m-1807 2 c0 -5 -5 -3 -10 5 -5 8 -10 20
-10 25 0 6 5 3 10 -5 5 -8 10 -19 10 -25z m4214 -367 c-4 -7 -53 -76 -109
-153 -213 -294 -304 -444 -416 -685 -76 -166 -182 -421 -194 -472 -4 -16 -11
-28 -15 -28 -4 0 -31 26 -60 58 -74 82 -156 148 -227 184 -35 17 -63 33 -63
35 0 10 308 338 387 413 48 45 68 67 43 49 -58 -44 -222 -207 -335 -334 -49
-55 -97 -106 -107 -113 -15 -11 -32 -9 -107 9 -113 28 -117 30 -100 60 28 53
119 167 170 213 107 96 322 245 684 472 121 76 271 175 334 221 62 46 115 83
118 83 2 0 1 -6 -3 -12z m-6446 -214 c40 -27 88 -58 106 -69 285 -173 711
-462 781 -530 39 -37 61 -62 50 -55 -11 7 15 -22 57 -64 69 -68 75 -76 55 -81
-12 -3 -67 -14 -122 -26 -55 -11 -107 -22 -116 -25 -11 -3 -48 31 -112 103
-52 60 -178 189 -278 288 -101 99 -245 241 -319 315 -194 193 -240 232 -123
105 109 -118 195 -203 312 -305 78 -68 491 -497 491 -510 0 -4 -18 -15 -41
-25 -48 -22 -133 -112 -185 -195 -33 -53 -38 -58 -49 -43 -6 10 -81 153 -165
318 -177 347 -260 488 -413 709 -95 138 -177 268 -177 282 0 3 39 -29 88 -69
48 -41 120 -96 160 -123z m-714 -154 c35 -13 53 -53 66 -151 61 -443 202 -878
411 -1261 38 -70 69 -130 69 -133 0 -3 -15 -5 -32 -5 -86 0 -233 115 -329 256
-141 208 -240 458 -323 814 -42 179 -49 258 -31 336 30 129 85 176 169 144z
m7766 -12 c25 -13 55 -38 67 -56 62 -94 31 -317 -100 -714 -150 -452 -328
-700 -537 -747 -58 -13 -59 1 -9 88 124 215 304 688 368 968 26 111 71 379 71
421 0 21 47 62 72 62 13 0 44 -10 68 -22z m-5970 -606 c0 -7 -74 55 -95 79
-11 13 6 1 38 -26 31 -27 57 -51 57 -53z m2185 59 c22 -9 59 -23 82 -31 49
-15 103 -59 103 -83 0 -9 15 -37 34 -61 50 -66 61 -107 61 -226 0 -100 -2
-108 -37 -182 -20 -43 -33 -80 -28 -83 23 -14 -25 -78 -52 -69 -12 3 -32 -4
-54 -21 -120 -92 -307 -100 -453 -19 -41 22 -45 23 -62 8 -22 -20 -47 -12 -84
26 l-29 30 22 29 21 29 -36 71 c-32 62 -37 82 -41 159 -3 70 0 99 17 150 55
163 173 262 351 296 42 8 143 -5 185 -23z m1922 -221 c45 -21 101 -51 125 -68
102 -71 257 -227 329 -334 l39 -56 -76 -234 c-85 -263 -143 -428 -156 -443 -4
-5 -8 4 -8 22 0 72 -22 294 -36 363 -9 41 -31 106 -50 145 -45 89 -173 273
-287 410 -49 58 -87 112 -84 119 3 7 22 38 42 70 42 65 34 65 162 6z m-3962
-12 c19 -29 35 -58 35 -64 0 -7 -17 -34 -38 -61 -65 -83 -219 -305 -261 -378
-85 -145 -130 -318 -132 -511 -1 -83 -12 -141 -21 -114 -93 272 -222 661 -225
681 -11 62 297 383 424 441 54 24 147 55 175 57 4 1 23 -23 43 -51z m102 -161
c90 -149 211 -285 798 -892 555 -576 909 -936 958 -977 l50 -42 160 164 c89
91 278 284 421 430 625 636 1024 1066 1175 1268 34 45 66 82 71 82 19 0 206
-221 282 -335 92 -136 116 -184 134 -270 19 -84 36 -394 28 -493 l-6 -83 -92
-81 c-433 -384 -907 -620 -1471 -732 -235 -47 -331 -57 -610 -63 -300 -6 -449
3 -695 43 -597 98 -1170 373 -1570 752 l-95 89 -3 164 c-6 298 24 459 115 609
84 138 293 420 311 420 4 0 21 -24 39 -53z m1663 -539 c76 -30 222 -30 298 0
28 11 52 16 52 11 0 -6 -9 -65 -20 -132 -40 -246 -91 -575 -106 -687 -18 -136
-60 -383 -72 -425 -8 -26 -10 -27 -15 -10 -10 33 -54 266 -91 485 -27 157
-116 752 -116 776 0 8 15 4 70 -18z m-2365 -263 c60 -157 145 -345 180 -401
41 -64 157 -176 305 -295 387 -311 867 -522 1395 -613 237 -40 362 -50 630
-50 319 0 507 21 810 90 394 90 844 295 1157 526 125 92 276 226 319 283 44
59 127 229 206 425 30 74 56 137 59 139 15 16 63 -83 94 -194 12 -44 40 -227
40 -263 0 -28 -55 -89 -210 -230 -525 -481 -1048 -748 -1735 -887 -263 -53
-435 -68 -775 -69 -314 0 -405 8 -687 59 -623 115 -1141 371 -1668 825 -106
91 -267 255 -285 289 -22 42 5 227 50 349 30 79 61 136 69 126 4 -5 25 -54 46
-109z m5359 -552 c23 -21 57 -50 76 -65 32 -26 34 -29 18 -41 -10 -8 -59 -20
-110 -27 -51 -7 -102 -16 -113 -20 -18 -7 -17 -9 10 -23 17 -9 45 -30 64 -47
29 -24 32 -30 18 -36 -15 -5 -79 34 -160 98 -21 17 -21 18 -3 32 24 19 104 36
170 36 29 0 56 3 60 7 4 4 -16 28 -45 54 -32 28 -49 50 -45 57 11 17 15 16 60
-25z m-5542 -152 c10 -15 18 -32 18 -39 0 -21 -33 -9 -46 16 -16 33 -54 75
-62 68 -3 -4 9 -38 28 -76 33 -68 35 -95 6 -71 -11 9 -15 8 -20 -4 -11 -30
-61 9 -101 80 -33 60 -38 85 -15 85 5 0 28 -32 50 -71 23 -39 44 -69 46 -66 2
2 -7 37 -21 77 -23 68 -24 75 -9 92 16 17 19 16 63 -24 25 -23 54 -53 63 -67z
m264 -213 c46 -39 84 -75 84 -79 0 -5 -43 -10 -96 -11 l-95 -3 51 -38 c50 -37
62 -69 17 -46 -39 21 -178 132 -172 137 7 7 163 3 190 -5 12 -3 0 12 -27 37
-27 23 -48 50 -48 61 0 10 3 19 6 19 3 0 43 -32 90 -72z m4971 57 c3 -10 -10
-31 -36 -57 -29 -28 -39 -44 -32 -51 7 -7 22 -1 48 19 52 41 63 47 63 34 0 -7
-15 -27 -33 -45 -24 -24 -31 -37 -24 -44 18 -18 33 -13 77 24 43 36 55 41 64
27 5 -8 -24 -38 -96 -101 -25 -21 -28 -22 -43 -8 -8 9 -37 33 -63 54 -76 62
-85 73 -59 73 6 0 35 20 62 45 55 49 63 52 72 30z m-224 -237 c43 -54 57 -81
49 -94 -12 -19 -176 -124 -193 -124 -8 0 -25 10 -36 23 -27 29 -77 107 -72
111 42 33 196 125 211 126 4 0 22 -19 41 -42z m-4503 5 c0 -3 -26 -35 -57 -71
-32 -37 -58 -69 -60 -71 -1 -2 -9 -1 -18 3 -21 8 -11 25 55 98 32 36 56 55 65
51 8 -3 15 -7 15 -10z m328 -209 c17 -18 32 -40 32 -48 0 -21 -40 -46 -73 -46
-24 0 -28 -3 -22 -17 17 -39 18 -66 4 -61 -8 2 -18 23 -23 46 -9 39 -15 46
-33 40 -4 -2 -6 -19 -4 -38 3 -42 -11 -31 -28 21 -7 20 -21 45 -31 54 -19 17
-21 17 -38 2 -10 -10 -22 -17 -26 -17 -17 0 3 39 50 102 l49 65 55 -34 c30
-19 70 -50 88 -69z m3777 4 c-4 -13 -22 -56 -40 -95 -19 -40 -32 -73 -31 -73
2 0 38 16 80 36 73 35 107 39 75 10 -25 -23 -218 -120 -225 -113 -4 4 14 52
39 107 26 55 47 103 47 105 0 7 -88 -43 -111 -62 -21 -17 -36 -17 -43 2 -4 11
18 27 87 60 107 51 131 56 122 23z m-3467 -147 c73 -39 82 -46 82 -72 0 -36
-33 -60 -71 -52 -29 5 -40 -9 -18 -22 13 -9 31 -56 24 -63 -7 -7 -55 39 -55
53 0 7 -11 24 -25 39 -14 15 -25 36 -25 47 0 10 1 19 3 19 1 0 24 -11 52 -25
47 -24 51 -25 63 -8 18 25 12 33 -50 58 l-57 23 -36 -64 c-34 -61 -57 -76 -63
-43 -3 17 76 162 86 157 4 -2 44 -23 90 -47z m3112 -87 c22 -47 40 -88 40 -90
0 -2 -9 -8 -20 -14 -17 -9 -21 -7 -26 7 -4 10 -20 48 -37 85 -24 56 -28 70
-17 83 7 8 14 15 17 15 2 0 22 -39 43 -86z m-263 -16 c6 -7 22 -44 37 -83 24
-64 25 -71 10 -82 -26 -19 -197 -74 -205 -65 -10 11 -49 133 -49 154 0 21 22
34 110 64 77 27 85 28 97 12z m-2470 -35 l83 -27 -6 -36 c-4 -19 -10 -37 -15
-40 -4 -3 -11 -19 -15 -35 -15 -66 -15 -66 -111 -34 -49 15 -87 32 -86 36 15
48 59 163 62 163 3 0 42 -12 88 -27z m2057 -89 c8 -22 7 -23 -35 -26 -18 -1
-37 -6 -40 -11 -6 -9 11 -101 27 -140 6 -15 3 -18 -17 -15 -17 2 -25 12 -32
38 -29 119 -23 110 -72 110 -30 0 -45 4 -45 13 0 9 30 18 88 29 117 20 119 20
126 2z m-1699 -11 c49 -10 75 -21 75 -30 0 -10 -9 -13 -32 -9 -18 3 -49 8 -69
11 -31 5 -37 2 -42 -14 -5 -22 1 -25 71 -36 28 -5 42 -12 42 -22 0 -12 -11
-13 -66 -8 -61 7 -66 6 -62 -11 2 -13 18 -22 58 -31 29 -6 58 -9 62 -7 4 3 8
-7 8 -21 0 -20 -4 -25 -17 -21 -10 3 -47 10 -83 17 -36 6 -68 15 -72 18 -10 8
32 181 43 181 5 0 42 -7 84 -17z m305 -98 c35 -35 67 -62 71 -59 4 2 11 24 14
48 5 32 12 46 26 49 20 5 36 -8 21 -17 -5 -3 -12 -31 -16 -63 -8 -71 -16 -103
-25 -103 -4 0 -39 30 -79 68 l-72 67 -6 -45 c-9 -67 -14 -80 -31 -80 -13 0
-14 10 -9 68 11 103 17 132 30 132 6 0 40 -29 76 -65z m1040 41 c0 -14 -19
-19 -132 -31 -58 -6 -78 -19 -61 -36 6 -6 44 -6 103 1 51 6 95 8 99 5 3 -3 5
-29 6 -58 l0 -52 -80 -8 c-102 -9 -150 -6 -150 11 0 10 24 15 94 18 98 4 118
11 108 38 -6 14 -21 15 -105 10 l-100 -7 -11 35 c-19 59 -11 65 102 76 56 5
108 10 115 11 6 0 12 -5 12 -13z m-405 -31 c0 -5 -32 -11 -71 -13 l-72 -3 -6
-50 c-4 -27 -4 -55 0 -61 5 -7 35 -9 90 -5 65 4 84 2 84 -8 0 -17 -139 -31
-183 -18 -32 9 -32 10 -35 77 -2 38 -1 75 2 83 4 11 27 13 98 11 54 -2 93 -7
93 -13z"/>
<path d="M6494 8896 c-33 -15 -64 -51 -64 -75 0 -35 42 -98 78 -118 79 -45
160 -42 217 9 60 52 45 114 -40 164 -55 32 -145 41 -191 20z"/>
<path d="M6990 8678 l-19 -43 65 -32 c36 -18 73 -33 82 -33 41 0 57 54 25 82
-26 21 -84 55 -111 63 -19 6 -25 1 -42 -37z"/>
<path d="M3101 8662 c-29 -15 -52 -32 -50 -37 2 -6 18 -22 35 -38 l32 -27 53
27 c67 35 80 55 55 82 -26 28 -60 26 -125 -7z"/>
<path d="M4404 7450 c-25 -10 -40 -40 -20 -40 8 0 21 11 30 25 9 14 15 25 14
24 -2 0 -12 -4 -24 -9z"/>
<path d="M4255 7294 l-30 -26 33 22 c17 12 32 23 32 26 0 7 -4 5 -35 -22z"/>
<path d="M4145 7200 c-46 -47 -75 -61 -44 -22 8 10 1 4 -14 -12 -86 -93 -199
-306 -212 -399 -4 -26 -2 -24 10 11 22 67 83 188 111 221 14 17 23 35 20 40
-4 5 -1 13 5 17 8 5 9 3 4 -7 -5 -9 -5 -11 2 -4 17 16 173 205 170 205 -1 0
-25 -22 -52 -50z m-80 -94 c-15 -20 -30 -36 -32 -36 -3 0 -1 6 4 13 5 6 17 25
27 40 10 16 20 26 23 24 3 -3 -7 -22 -22 -41z"/>
<path d="M3792 6815 c0 -16 2 -22 5 -12 2 9 2 23 0 30 -3 6 -5 -1 -5 -18z"/>
<path d="M4088 6688 c-46 -69 -98 -204 -104 -268 -1 -14 -12 -56 -23 -95 -11
-38 -20 -88 -19 -110 0 -31 5 -18 24 59 27 112 92 257 149 331 57 76 61 85 16
35 -22 -25 -62 -82 -87 -127 -26 -46 -48 -83 -49 -83 -6 0 62 165 89 218 28
55 30 81 4 40z"/>
<path d="M3905 6619 c-4 -6 -5 -12 -2 -15 2 -3 7 2 10 11 7 17 1 20 -8 4z"/>
<path d="M4006 6306 c-20 -46 -36 -90 -36 -98 0 -7 18 29 40 81 22 52 38 96
36 98 -2 2 -20 -34 -40 -81z"/>
<path d="M6020 6815 c13 -14 26 -25 28 -25 3 0 -5 11 -18 25 -13 14 -26 25
-28 25 -3 0 5 -11 18 -25z"/>
<path d="M6105 6711 c5 -7 38 -68 72 -135 34 -67 62 -117 63 -112 0 17 -100
211 -122 236 -13 14 -19 19 -13 11z"/>
<path d="M6293 4925 c0 -22 2 -30 4 -17 2 12 2 30 0 40 -3 9 -5 -1 -4 -23z"/>
<path d="M7457 8382 c-31 -20 -57 -40 -57 -44 0 -4 28 -25 63 -47 61 -39 62
-40 69 -18 11 40 9 124 -5 135 -9 8 -27 1 -70 -26z"/>
<path d="M7080 6231 c0 -6 4 -13 10 -16 6 -3 7 1 4 9 -7 18 -14 21 -14 7z"/>
<path d="M6631 6154 c0 -11 3 -14 6 -6 3 7 2 16 -1 19 -3 4 -6 -2 -5 -13z"/>
<path d="M6642 6105 c0 -16 2 -22 5 -12 2 9 2 23 0 30 -3 6 -5 -1 -5 -18z"/>
<path d="M3134 6258 l-19 -23 23 19 c12 11 22 21 22 23 0 8 -8 2 -26 -19z"/>
<path d="M3100 6210 c-6 -11 -8 -20 -6 -20 3 0 10 9 16 20 6 11 8 20 6 20 -3
0 -10 -9 -16 -20z"/>
<path d="M5766 5972 c-3 -5 -45 -8 -93 -7 -75 2 -95 -1 -137 -22 -83 -40 -126
-80 -126 -116 l0 -30 26 24 c15 13 1 -11 -30 -53 l-57 -78 35 0 c20 0 69 -9
109 -20 40 -11 102 -21 138 -23 36 -2 70 -6 76 -10 6 -4 13 -1 16 7 4 9 14 12
27 9 13 -4 26 1 34 12 8 11 18 15 26 10 9 -5 11 -4 6 4 -4 6 0 14 11 18 10 4
27 15 37 25 11 10 23 18 28 18 4 0 8 7 8 15 0 9 27 45 61 81 63 68 74 96 19
50 -41 -34 -61 -34 -29 0 l24 27 -27 -18 c-32 -20 -36 -11 -10 18 9 11 11 17
5 13 -7 -4 -13 -3 -13 3 0 7 -8 7 -25 1 -16 -6 -26 -6 -31 1 -4 6 -11 6 -21
-2 -9 -8 -17 -9 -21 -3 -18 24 -61 54 -66 46z m-166 -152 c0 -5 -4 -10 -10
-10 -5 0 -10 5 -10 10 0 6 5 10 10 10 6 0 10 -4 10 -10z m148 -23 c20 -16 14
-45 -15 -64 -23 -15 -50 -18 -164 -18 -76 0 -141 3 -145 8 -9 8 44 67 60 67 6
0 18 -13 27 -29 17 -30 51 -41 119 -37 23 1 35 7 35 16 0 8 8 29 18 47 17 32
33 35 65 10z m-103 -13 c0 -16 -8 -20 -47 -22 -29 -2 -48 1 -48 7 0 6 14 11
30 11 18 0 33 6 37 15 8 21 28 13 28 -11z"/>
<path d="M4515 5960 c-4 -6 -32 -10 -63 -9 -35 2 -57 -2 -60 -9 -5 -15 -32
-16 -32 -2 0 20 -27 9 -38 -15 -14 -30 -33 -32 -57 -5 -10 11 -22 20 -27 20
-16 0 -8 -24 20 -53 27 -30 15 -29 -23 2 -25 21 26 -49 67 -91 23 -24 27 -33
16 -39 -10 -7 -9 -9 5 -9 9 0 17 -4 17 -8 0 -5 15 -16 33 -25 17 -9 50 -30 72
-46 67 -50 189 -46 330 9 16 6 47 12 67 12 36 0 49 10 29 23 -6 3 -31 36 -57
72 -25 37 -40 63 -33 57 14 -11 59 -17 59 -8 0 3 -7 18 -15 33 -18 35 -115 77
-213 91 -85 12 -89 12 -97 0z m135 -140 c0 -5 -2 -10 -4 -10 -3 0 -8 5 -11 10
-3 6 -1 10 4 10 6 0 11 -4 11 -10z m-58 -84 c25 -18 103 -22 93 -6 -3 6 -1 10
4 10 6 0 11 -5 11 -11 0 -5 5 -7 10 -4 6 4 8 10 5 15 -3 5 4 19 16 31 l21 21
40 -38 39 -39 -118 -6 c-102 -5 -127 -3 -183 15 -81 26 -92 52 -33 78 l38 16
17 -33 c10 -19 28 -41 40 -49z m28 53 c0 -6 16 -10 38 -9 53 3 56 2 42 -15
-18 -22 -93 -20 -114 4 -13 15 -14 20 -4 24 22 9 38 7 38 -4z"/>
<path d="M5255 5099 c-4 -6 -5 -13 -2 -16 7 -7 27 6 27 18 0 12 -17 12 -25 -2z"/>
<path d="M4978 5093 c7 -3 16 -2 19 1 4 3 -2 6 -13 5 -11 0 -14 -3 -6 -6z"/>
<path d="M5195 5060 c-3 -5 -1 -10 4 -10 6 0 11 5 11 10 0 6 -2 10 -4 10 -3 0
-8 -4 -11 -10z"/>
<path d="M4935 4840 c-49 -21 -111 -42 -137 -46 -51 -7 -61 -18 -28 -29 11 -4
48 -31 83 -61 74 -65 122 -89 208 -104 134 -24 253 11 345 103 29 29 63 59 76
69 l23 16 -30 6 c-57 13 -130 34 -204 61 -63 23 -77 25 -102 15 -26 -11 -55
-10 -119 4 -17 4 -54 -7 -115 -34z m98 -101 c20 -5 37 -15 37 -21 0 -5 6 -8
14 -5 23 9 48 -15 35 -33 -7 -10 -12 -11 -15 -4 -3 7 -14 10 -24 7 -11 -3 -20
0 -20 6 0 5 -7 8 -15 5 -18 -7 -20 12 -3 22 7 5 -3 12 -28 20 -48 15 -33 18
19 3z m-29 -15 c9 -3 13 -10 10 -15 -8 -14 -21 -11 -28 6 -6 17 -4 18 18 9z
m244 -20 c0 -16 -5 -23 -13 -20 -7 2 -24 -2 -39 -9 -15 -8 -26 -10 -26 -4 0 6
-4 7 -10 4 -5 -3 -15 -3 -21 0 -17 11 25 43 62 48 19 2 37 5 40 5 4 1 7 -10 7
-24z m32 -4 c0 -5 -4 -10 -10 -10 -5 0 -10 5 -10 10 0 6 5 10 10 10 6 0 10 -4
10 -10z"/>
<path d="M8090 4647 c-58 -56 -115 -113 -125 -127 -22 -28 125 109 196 182 80
84 38 51 -71 -55z"/>
<path d="M7909 4463 l-24 -28 28 24 c15 14 27 26 27 28 0 8 -8 1 -31 -24z"/>
<path d="M4985 3902 c-118 -58 -180 -153 -180 -277 0 -85 25 -143 91 -211 66
-67 120 -89 224 -89 140 0 229 56 286 179 33 71 33 180 0 251 -51 110 -140
165 -276 172 -78 4 -90 2 -145 -25z m235 -73 c92 -42 124 -97 123 -212 -1
-101 -29 -159 -96 -201 -118 -73 -260 -36 -325 85 -20 37 -23 55 -20 114 4 95
37 158 102 203 42 28 57 32 110 32 40 0 77 -8 106 -21z"/>
<path d="M5045 3727 c-31 -17 -43 -32 -54 -65 -15 -47 -9 -98 15 -128 15 -19
15 -19 6 1 -12 28 -5 109 12 143 18 35 37 51 73 62 20 6 22 8 8 9 -11 0 -38
-9 -60 -22z"/>
<path d="M5176 3736 c49 -21 74 -61 76 -120 l1 -51 7 50 7 50 3 -50 c3 -42 4
-44 7 -16 5 40 -4 84 -16 77 -4 -3 -14 6 -22 20 -13 26 -57 54 -81 54 -7 -1 1
-7 18 -14z"/>
<path d="M7317 1685 c-37 -25 -67 -51 -67 -58 0 -7 13 -28 29 -47 l28 -35 59
37 c78 48 84 59 59 105 -11 20 -25 38 -30 40 -6 2 -40 -17 -78 -42z"/>
<path d="M3124 1548 c-5 -16 0 -27 20 -44 49 -43 141 -42 106 1 -12 14 -101
65 -114 65 -3 0 -8 -10 -12 -22z"/>
<path d="M6330 1232 c-62 -20 -69 -33 -50 -102 l11 -42 41 6 c22 4 56 13 75
21 39 16 39 24 8 98 -17 42 -13 41 -85 19z"/>
<path d="M3899 1209 c-13 -25 -15 -22 41 -38 31 -9 45 -10 48 -2 6 18 -1 25
-40 43 -37 16 -38 16 -49 -3z"/>
<path d="M3870 1139 c-10 -17 -6 -22 24 -34 46 -19 72 -19 80 1 8 20 11 18
-46 37 -46 15 -48 15 -58 -4z"/>
<path d="M5100 8490 c0 -5 6 -10 13 -10 19 0 142 -101 212 -174 33 -34 51 -51
40 -37 -76 99 -265 257 -265 221z"/>
<path d="M4914 8318 l-29 -33 33 29 c17 17 32 31 32 33 0 8 -8 1 -36 -29z"/>
<path d="M5390 8226 c0 -2 8 -10 18 -17 15 -13 16 -12 3 4 -13 16 -21 21 -21
13z"/>
<path d="M5435 8166 c10 -14 19 -26 22 -26 7 0 -17 39 -28 46 -6 3 -3 -5 6
-20z"/>
<path d="M5470 8110 c6 -11 13 -20 16 -20 2 0 0 9 -6 20 -6 11 -13 20 -16 20
-2 0 0 -9 6 -20z"/>
<path d="M5511 8040 c14 -31 19 -36 19 -24 0 6 -7 19 -16 30 -14 18 -14 18 -3
-6z"/>
<path d="M5025 7773 c-38 -32 -88 -86 -111 -120 -71 -104 -127 -276 -149 -463
l-7 -55 58 65 c31 36 109 116 173 177 l116 113 4 161 c2 91 -1 165 -6 170 -6
6 -36 -13 -78 -48z"/>
<path d="M5127 7824 c-3 -3 -3 -26 -1 -52 2 -26 5 -103 8 -171 l4 -125 60 -50
c33 -28 88 -82 122 -121 63 -71 156 -165 163 -165 2 0 -5 37 -15 83 -51 212
-81 315 -110 370 -50 92 -209 252 -231 231z"/>
<path d="M4602 7610 c0 -14 2 -19 5 -12 2 6 2 18 0 25 -3 6 -5 1 -5 -13z"/>
<path d="M5641 7604 c0 -11 3 -14 6 -6 3 7 2 16 -1 19 -3 4 -6 -2 -5 -13z"/>
<path d="M5652 7525 c0 -16 2 -22 5 -12 2 9 2 23 0 30 -3 6 -5 -1 -5 -18z"/>
<path d="M4592 7515 c0 -16 2 -22 5 -12 2 9 2 23 0 30 -3 6 -5 -1 -5 -18z"/>
<path d="M5070 7367 c-25 -27 -44 -54 -42 -58 1 -5 -4 -8 -10 -6 -7 1 -12 -4
-10 -11 1 -8 -2 -11 -7 -8 -12 8 -65 -53 -93 -107 -50 -93 -19 -321 56 -420
17 -22 60 -63 95 -90 61 -46 65 -48 73 -28 4 12 10 21 14 21 3 0 3 -8 0 -17
-4 -10 25 14 64 52 108 106 160 228 160 375 0 54 -26 130 -49 144 -6 4 -1 -9
10 -29 16 -26 23 -57 25 -108 l3 -72 -9 62 c-5 34 -16 76 -25 94 -20 38 -152
205 -186 235 l-24 20 -45 -49z m71 -88 c33 -23 75 -90 95 -152 12 -33 13 -36
10 -10 -4 25 -30 90 -53 136 -2 4 1 7 7 7 6 0 16 -14 22 -31 6 -16 13 -28 16
-25 3 3 12 0 20 -7 13 -9 14 -9 8 0 -4 8 -2 11 6 8 15 -6 39 -95 26 -95 -5 0
-6 -5 -3 -10 4 -6 2 -16 -3 -23 -15 -18 -22 -165 -8 -170 7 -2 4 -10 -7 -21
-11 -12 -15 -26 -12 -40 4 -14 3 -17 -3 -8 -7 10 -16 -3 -32 -45 -25 -62 -69
-138 -76 -131 -2 2 12 34 31 70 59 110 75 170 73 267 l-1 86 -7 -101 c-6 -97
-8 -106 -63 -217 -32 -65 -61 -117 -66 -117 -5 0 -29 39 -55 88 -25 48 -45 83
-45 77 0 -5 17 -43 39 -84 42 -80 47 -103 9 -49 -13 18 -38 51 -56 72 -18 22
-33 48 -33 57 0 10 -4 21 -10 24 -5 3 -10 16 -9 28 0 12 -3 35 -7 50 -9 39 20
168 55 242 29 59 86 145 97 145 3 0 19 -9 35 -21z m173 -125 c3 -8 2 -12 -4
-9 -6 3 -10 10 -10 16 0 14 7 11 14 -7z m33 -196 c-3 -8 -6 -5 -6 6 -1 11 2
17 5 13 3 -3 4 -12 1 -19z m-10 -40 c-3 -8 -6 -5 -6 6 -1 11 2 17 5 13 3 -3 4
-12 1 -19z"/>
<path d="M4991 6914 c0 -11 3 -14 6 -6 3 7 2 16 -1 19 -3 4 -6 -2 -5 -13z"/>
<path d="M5001 6870 c0 -8 4 -22 9 -30 12 -18 12 -2 0 25 -6 13 -9 15 -9 5z"/>
<path d="M5652 7300 c0 -14 2 -19 5 -12 2 6 2 18 0 25 -3 6 -5 1 -5 -13z"/>
<path d="M4602 7260 c0 -14 2 -19 5 -12 2 6 2 18 0 25 -3 6 -5 1 -5 -13z"/>
<path d="M5280 7255 c13 -14 26 -25 28 -25 3 0 -5 11 -18 25 -13 14 -26 25
-28 25 -3 0 5 -11 18 -25z"/>
<path d="M5641 7244 c0 -11 3 -14 6 -6 3 7 2 16 -1 19 -3 4 -6 -2 -5 -13z"/>
<path d="M4616 7200 c6 -36 11 -46 18 -39 2 2 -3 20 -10 39 l-14 35 6 -35z"/>
<path d="M5631 7205 c0 -11 -7 -29 -15 -40 -7 -11 -19 -46 -26 -78 -9 -47 -16
-60 -36 -68 -16 -6 -32 -5 -44 1 -28 15 -28 14 -46 -46 -9 -30 -18 -54 -20
-51 -2 2 3 27 12 56 25 86 10 67 -20 -24 -15 -46 -38 -104 -51 -127 -23 -42
-160 -182 -235 -241 -19 -15 -25 -23 -13 -17 12 5 27 16 35 22 7 7 36 31 63
53 81 65 131 123 170 199 21 39 35 58 31 43 -4 -16 -3 -27 1 -24 4 3 14 -1 20
-9 8 -8 9 -15 3 -19 -6 -3 -10 -1 -10 4 0 26 -27 1 -53 -49 -33 -65 -61 -96
-142 -158 -33 -26 -61 -50 -63 -54 -2 -4 -9 -8 -15 -8 -7 -1 -22 -9 -34 -19
-22 -18 -23 -27 -23 -148 0 -126 7 -183 19 -166 3 5 40 36 81 70 147 120 189
182 280 423 71 186 86 235 99 316 6 39 18 88 26 108 9 21 14 45 12 54 -4 13
-5 12 -6 -3z m-128 -433 c-3 -12 -10 -22 -15 -22 -5 0 -7 3 -5 8 2 4 7 16 11
26 9 25 17 16 9 -12z"/>
<path d="M4647 7075 c7 -44 35 -132 113 -354 27 -79 48 -146 46 -149 -10 -9
57 -125 97 -170 40 -43 197 -166 204 -159 2 2 0 72 -4 155 l-6 152 -71 54
c-39 30 -91 75 -116 99 -24 25 -48 43 -53 40 -5 -3 -7 3 -5 13 2 11 -2 18 -9
17 -7 -2 -10 3 -7 11 3 7 -2 19 -11 26 -12 10 -13 15 -4 21 9 5 10 11 2 21 -5
7 -18 42 -28 78 -19 70 -49 119 -60 99 -4 -6 -18 -9 -31 -6 -13 2 -24 -1 -25
-7 -1 -6 -9 14 -19 44 -17 49 -18 50 -13 15z"/>
<path d="M4802 6990 c0 -14 2 -19 5 -12 2 6 2 18 0 25 -3 6 -5 1 -5 -13z"/>
<path d="M4811 6934 c0 -11 3 -14 6 -6 3 7 2 16 -1 19 -3 4 -6 -2 -5 -13z"/>
<path d="M4821 6900 c0 -8 4 -22 9 -30 12 -18 12 -2 0 25 -6 13 -9 15 -9 5z"/>
<path d="M4840 6838 c0 -9 17 -38 39 -65 39 -50 200 -203 213 -203 4 0 -38 44
-93 97 -54 53 -113 117 -129 141 -17 25 -30 38 -30 30z"/>
</g>
</svg>
